<svg version="1.1" id="Layer_1" xmlns:x="ns_extend;" xmlns:i="ns_ai;" xmlns:graph="ns_graphs;" xmlns="http://www.w3.org/2000/svg" xmlns:xlink="http://www.w3.org/1999/xlink" x="0px" y="0px" viewBox="0 0 262.4 56" style="enable-background:new 0 0 262.4 56;" xml:space="preserve">
 <style type="text/css">
  .st0{fill:url(#SVGID_1_);}
	.st1{fill:url(#SVGID_2_);}
	.st2{fill:url(#SVGID_3_);}
	.st3{fill:url(#SVGID_4_);}
	.st4{opacity:0.18;fill:url(#SVGID_5_);enable-background:new    ;}
	.st5{opacity:0.18;fill:url(#SVGID_6_);enable-background:new    ;}
	.st6{opacity:0.18;fill:url(#SVGID_7_);enable-background:new    ;}
	.st7{opacity:0.18;fill:url(#SVGID_8_);enable-background:new    ;}
 </style>
 <metadata>
  <sfw xmlns="ns_sfw;">
   <slices>
   </slices>
   <sliceSourceBounds bottomLeftOrigin="true" height="56" width="262.4" x="-129.8" y="-210">
   </sliceSourceBounds>
  </sfw>
 </metadata>
 <g>
  <linearGradient id="SVGID_1_" gradientUnits="userSpaceOnUse" x1="144.6644" y1="-214.5148" x2="54.3811" y2="-119.6562" gradientTransform="matrix(0.8571 0 0 -0.8571 -79.2389 -137.3765)">
   <stop offset="0" style="stop-color:#E82A73">
   </stop>
   <stop offset="0.113" style="stop-color:#DE2D7A">
   </stop>
   <stop offset="0.3" style="stop-color:#C5388F">
   </stop>
   <stop offset="0.54" style="stop-color:#9B4AB0">
   </stop>
   <stop offset="0.818" style="stop-color:#6262DE">
   </stop>
   <stop offset="0.994" style="stop-color:#3B73FF">
   </stop>
  </linearGradient>
  <path class="st0" d="M18.4,0H0v18.3h18.4V0z">
  </path>
  <linearGradient id="SVGID_2_" gradientUnits="userSpaceOnUse" x1="145.1664" y1="-214.0451" x2="54.8831" y2="-119.1866" gradientTransform="matrix(0.8571 0 0 -0.8571 -79.2389 -137.3765)">
   <stop offset="0" style="stop-color:#FF3C82">
   </stop>
   <stop offset="0.103" style="stop-color:#F53E88">
   </stop>
   <stop offset="0.274" style="stop-color:#DC4598">
   </stop>
   <stop offset="0.492" style="stop-color:#B251B2">
   </stop>
   <stop offset="0.745" style="stop-color:#7961D7">
   </stop>
   <stop offset="0.994" style="stop-color:#3B73FF">
   </stop>
  </linearGradient>
  <path class="st1" d="M40.2,22.1H21.8v18.3h18.4V22.1z">
  </path>
  <linearGradient id="SVGID_3_" gradientUnits="userSpaceOnUse" x1="144.7625" y1="-203.9378" x2="114.171" y2="-93.0769" gradientTransform="matrix(0.8571 0 0 -0.8571 -79.2389 -137.3765)">
   <stop offset="0" style="stop-color:#E82A73">
   </stop>
   <stop offset="0.113" style="stop-color:#DE2D7A">
   </stop>
   <stop offset="0.3" style="stop-color:#C5388F">
   </stop>
   <stop offset="0.54" style="stop-color:#9B4AB0">
   </stop>
   <stop offset="0.818" style="stop-color:#6262DE">
   </stop>
   <stop offset="0.994" style="stop-color:#3B73FF">
   </stop>
  </linearGradient>
  <path class="st2" d="M40.2,0H21.8v18.3H56v-2.6c0-4.2-1.7-8.1-4.6-11.1C48.4,1.7,44.4,0,40.2,0L40.2,0z">
  </path>
  <linearGradient id="SVGID_4_" gradientUnits="userSpaceOnUse" x1="134.8237" y1="-213.0638" x2="25.3098" y2="-179.7003" gradientTransform="matrix(0.8571 0 0 -0.8571 -79.2389 -137.3765)">
   <stop offset="0" style="stop-color:#E82A73">
   </stop>
   <stop offset="0.113" style="stop-color:#DE2D7A">
   </stop>
   <stop offset="0.3" style="stop-color:#C5388F">
   </stop>
   <stop offset="0.54" style="stop-color:#9B4AB0">
   </stop>
   <stop offset="0.818" style="stop-color:#6262DE">
   </stop>
   <stop offset="0.994" style="stop-color:#3B73FF">
   </stop>
  </linearGradient>
  <path class="st3" d="M0,22.1v18.3c0,4.2,1.7,8.1,4.6,11.1c3,2.9,7,4.6,11.2,4.6h2.6V22.1H0z">
  </path>
  <linearGradient id="SVGID_5_" gradientUnits="userSpaceOnUse" x1="82.2078" y1="-133.5275" x2="112.8836" y2="-203.8172" gradientTransform="matrix(0.8571 0 0 -0.8571 -79.2389 -137.3765)">
   <stop offset="0" style="stop-color:#E82A73">
   </stop>
   <stop offset="0.114" style="stop-color:#DE286E">
   </stop>
   <stop offset="0.303" style="stop-color:#C52361">
   </stop>
   <stop offset="0.544" style="stop-color:#9B1A4D">
   </stop>
   <stop offset="0.825" style="stop-color:#620F30">
   </stop>
   <stop offset="0.994" style="stop-color:#3D081E">
   </stop>
  </linearGradient>
  <path class="st4" d="M0,0l18.4,18.3H0V0z">
  </path>
  <linearGradient id="SVGID_6_" gradientUnits="userSpaceOnUse" x1="107.6542" y1="-159.2663" x2="138.33" y2="-229.556" gradientTransform="matrix(0.8571 0 0 -0.8571 -79.2389 -137.3765)">
   <stop offset="0" style="stop-color:#E82A73">
   </stop>
   <stop offset="0.114" style="stop-color:#DE286E">
   </stop>
   <stop offset="0.303" style="stop-color:#C52361">
   </stop>
   <stop offset="0.544" style="stop-color:#9B1A4D">
   </stop>
   <stop offset="0.825" style="stop-color:#620F30">
   </stop>
   <stop offset="0.994" style="stop-color:#3D081E">
   </stop>
  </linearGradient>
  <path class="st5" d="M21.8,22.1l18.4,18.3H21.8V22.1z">
  </path>
  <linearGradient id="SVGID_7_" gradientUnits="userSpaceOnUse" x1="70.8311" y1="-180.0576" x2="140.3046" y2="-226.2107" gradientTransform="matrix(0.8571 0 0 -0.8571 -79.2389 -137.3765)">
   <stop offset="0" style="stop-color:#E82A73">
   </stop>
   <stop offset="0.114" style="stop-color:#DE286E">
   </stop>
   <stop offset="0.303" style="stop-color:#C52361">
   </stop>
   <stop offset="0.544" style="stop-color:#9B1A4D">
   </stop>
   <stop offset="0.825" style="stop-color:#620F30">
   </stop>
   <stop offset="0.994" style="stop-color:#3D081E">
   </stop>
  </linearGradient>
  <path class="st6" d="M0,40.3c0,4.2,1.7,8.1,4.6,11.1c3,2.9,7,4.6,11.2,4.6h2.6V22.1L0,40.3z">
  </path>
  <linearGradient id="SVGID_8_" gradientUnits="userSpaceOnUse" x1="297.6904" y1="-1441.6218" x2="309.5946" y2="-1535.6121" gradientTransform="matrix(0.8571 0 0 -0.8571 -79.2389 -137.3765)">
   <stop offset="0" style="stop-color:#E82A73">
   </stop>
   <stop offset="0.114" style="stop-color:#DE286E">
   </stop>
   <stop offset="0.303" style="stop-color:#C52361">
   </stop>
   <stop offset="0.544" style="stop-color:#9B1A4D">
   </stop>
   <stop offset="0.825" style="stop-color:#620F30">
   </stop>
   <stop offset="0.994" style="stop-color:#3D081E">
   </stop>
  </linearGradient>
  <path class="st7" d="M40.2,0c4.2,0,8.2,1.7,11.2,4.6c3,2.9,4.6,6.9,4.6,11.1v2.6H21.8L40.2,0z">
  </path>
  <path d="M86.5,24.8h-4.3V44h-4.8V24.8h-2.7v-3.9h2.7v-1.6c0-2.6,0.7-4.6,2.1-5.8c1.4-1.2,3.6-1.8,6.7-1.8v4c-1.5,0-2.5,0.3-3.1,0.8
		c-0.6,0.5-0.9,1.5-0.9,2.8v1.6h4.3V24.8z">
  </path>
  <path d="M92.3,17.9c-0.9,0-1.6-0.3-2.2-0.9c-0.6-0.6-0.9-1.3-0.9-2.2s0.3-1.6,0.9-2.2c0.6-0.6,1.3-0.9,2.2-0.9
		c0.8,0,1.5,0.3,2.1,0.9c0.6,0.6,0.9,1.3,0.9,2.2S95,16.4,94.4,17C93.8,17.6,93.1,17.9,92.3,17.9z M94.6,20.9v23h-4.8v-23H94.6z">
  </path>
  <path d="M104.8,24.3c0.7-1.2,1.6-2.1,2.8-2.7c1.2-0.7,2.6-1,4.1-1v4.9h-1.2c-1.9,0-3.3,0.5-4.3,1.4c-0.9,0.9-1.4,2.6-1.4,4.9V44
		H100v-23h4.8V24.3z">
  </path>
  <path d="M136.4,31.9c0,0.9-0.1,1.6-0.2,2.3h-17.6c0.1,1.8,0.8,3.3,2,4.4c1.2,1.1,2.7,1.7,4.5,1.7c2.6,0,4.4-1.1,5.4-3.2h5.1
		c-0.7,2.1-2,3.9-3.8,5.2c-1.8,1.3-4.1,2-6.8,2c-2.2,0-4.2-0.5-5.9-1.5c-1.7-1-3.1-2.4-4.1-4.2c-1-1.8-1.5-3.9-1.5-6.3
		c0-2.4,0.5-4.4,1.4-6.2c1-1.8,2.3-3.2,4.1-4.2c1.8-1,3.8-1.5,6-1.5c2.2,0,4.1,0.5,5.8,1.4c1.7,0.9,3,2.3,4,4
		C135.9,27.7,136.4,29.6,136.4,31.9z M131.4,30.4c0-1.8-0.7-3.2-1.9-4.2c-1.2-1.1-2.7-1.6-4.6-1.6c-1.6,0-3.1,0.5-4.2,1.6
		c-1.2,1-1.9,2.4-2.1,4.2H131.4z">
  </path>
  <path d="M149.9,24.8h-4.3V44h-4.8V24.8h-2.7v-3.9h2.7v-1.6c0-2.6,0.7-4.6,2.1-5.8c1.4-1.2,3.6-1.8,6.7-1.8v4
		c-1.5,0-2.5,0.3-3.1,0.8c-0.6,0.5-0.9,1.5-0.9,2.8v1.6h4.3V24.8z">
  </path>
  <path d="M158.1,13v31h-4.8V13H158.1z">
  </path>
  <path d="M165.9,17.9c-0.9,0-1.6-0.3-2.2-0.9c-0.6-0.6-0.9-1.3-0.9-2.2s0.3-1.6,0.9-2.2c0.6-0.6,1.3-0.9,2.2-0.9
		c0.8,0,1.5,0.3,2.1,0.9c0.6,0.6,0.9,1.3,0.9,2.2s-0.3,1.6-0.9,2.2C167.5,17.6,166.7,17.9,165.9,17.9z M168.2,20.9v23h-4.8v-23
		H168.2z">
  </path>
  <path d="M194.8,31.9c0,0.9-0.1,1.6-0.2,2.3H177c0.1,1.8,0.8,3.3,2,4.4c1.2,1.1,2.7,1.7,4.5,1.7c2.6,0,4.4-1.1,5.4-3.2h5.1
		c-0.7,2.1-2,3.9-3.8,5.2c-1.8,1.3-4.1,2-6.8,2c-2.2,0-4.2-0.5-5.9-1.5c-1.7-1-3.1-2.4-4.1-4.2c-1-1.8-1.5-3.9-1.5-6.3
		c0-2.4,0.5-4.4,1.4-6.2c1-1.8,2.3-3.2,4.1-4.2c1.8-1,3.8-1.5,6-1.5c2.2,0,4.1,0.5,5.8,1.4c1.7,0.9,3,2.3,4,4
		C194.3,27.7,194.8,29.6,194.8,31.9z M189.8,30.4c0-1.8-0.7-3.2-1.9-4.2c-1.2-1.1-2.7-1.6-4.6-1.6c-1.6,0-3.1,0.5-4.2,1.6
		c-1.2,1-1.9,2.4-2.1,4.2H189.8z">
  </path>
  <path d="M207,44.3c-1.8,0-3.4-0.3-4.9-1c-1.4-0.7-2.6-1.6-3.4-2.7c-0.8-1.1-1.3-2.4-1.3-3.8h4.9c0.1,1,0.5,1.8,1.4,2.5
		c0.9,0.6,1.9,1,3.2,1c1.3,0,2.4-0.3,3.1-0.8c0.8-0.5,1.1-1.2,1.1-2c0-0.9-0.4-1.5-1.3-1.9c-0.8-0.4-2.1-0.9-3.9-1.4
		c-1.7-0.5-3.1-0.9-4.2-1.4c-1.1-0.4-2-1.1-2.8-2c-0.8-0.9-1.2-2.1-1.2-3.6c0-1.2,0.4-2.3,1.1-3.3c0.7-1,1.8-1.8,3.1-2.4
		c1.4-0.6,2.9-0.9,4.7-0.9c2.6,0,4.7,0.7,6.3,2c1.6,1.3,2.5,3.1,2.6,5.4h-4.8c-0.1-1-0.5-1.9-1.3-2.5c-0.8-0.6-1.8-0.9-3.1-0.9
		c-1.3,0-2.2,0.2-2.9,0.7c-0.7,0.5-1,1.1-1,1.9c0,0.6,0.2,1.1,0.7,1.5c0.4,0.4,1,0.8,1.6,1c0.6,0.2,1.6,0.5,2.8,0.9
		c1.7,0.4,3,0.9,4.1,1.4c1.1,0.4,2,1.1,2.8,2c0.8,0.9,1.2,2.1,1.2,3.6c0,1.3-0.4,2.5-1.1,3.5c-0.7,1-1.8,1.8-3.1,2.4
		C210.3,44,208.8,44.3,207,44.3z">
  </path>
  <path d="M222.1,44.2c-0.9,0-1.6-0.3-2.2-0.9c-0.6-0.6-0.9-1.3-0.9-2.2c0-0.9,0.3-1.6,0.9-2.2c0.6-0.6,1.3-0.9,2.2-0.9
		c0.8,0,1.5,0.3,2.1,0.9c0.6,0.6,0.9,1.3,0.9,2.2c0,0.9-0.3,1.6-0.9,2.2C223.6,44,222.9,44.2,222.1,44.2z">
  </path>
  <path d="M227.8,32.3c0-2.3,0.5-4.4,1.4-6.1c1-1.8,2.3-3.2,3.9-4.1c1.7-1,3.5-1.5,5.5-1.5c1.8,0,3.4,0.4,4.7,1.1
		c1.4,0.7,2.5,1.6,3.3,2.6v-3.3h4.8v23h-4.8v-3.4c-0.8,1.1-1.9,2-3.3,2.7c-1.4,0.7-3,1.1-4.8,1.1c-2,0-3.8-0.5-5.4-1.5
		c-1.6-1-3-2.5-3.9-4.3C228.3,36.7,227.8,34.6,227.8,32.3z M246.7,32.4c0-1.6-0.3-3-1-4.1c-0.6-1.2-1.5-2.1-2.6-2.7
		c-1.1-0.6-2.2-0.9-3.4-0.9c-1.2,0-2.4,0.3-3.4,0.9c-1.1,0.6-1.9,1.5-2.6,2.6c-0.6,1.1-1,2.5-1,4.1c0,1.6,0.3,3,1,4.2
		c0.7,1.2,1.5,2.1,2.6,2.8c1.1,0.6,2.2,0.9,3.4,0.9c1.2,0,2.4-0.3,3.4-0.9c1.1-0.6,1.9-1.5,2.6-2.7C246.4,35.4,246.7,34,246.7,32.4z
		">
  </path>
  <path d="M259.3,17.9c-0.9,0-1.6-0.3-2.2-0.9c-0.6-0.6-0.9-1.3-0.9-2.2s0.3-1.6,0.9-2.2c0.6-0.6,1.3-0.9,2.2-0.9
		c0.8,0,1.5,0.3,2.1,0.9c0.6,0.6,0.9,1.3,0.9,2.2s-0.3,1.6-0.9,2.2C260.9,17.6,260.2,17.9,259.3,17.9z M261.7,20.9v23h-4.8v-23
		H261.7z">
  </path>
 </g>
</svg>